<svg xmlns="http://www.w3.org/2000/svg" xmlns:xlink="http://www.w3.org/1999/xlink" viewBox="0 0 512 512"><defs><style>.cls-1{isolation:isolate;}.cls-2{fill:#1a54ae;}.cls-3{font-size:65.79px;font-family:NexaBold, Nexa Bold;}.cls-10,.cls-3,.cls-6{fill:#fff;}.cls-4{letter-spacing:-0.03em;}.cls-5{letter-spacing:0em;}.cls-10,.cls-7,.cls-8{opacity:0.3;}.cls-7{mix-blend-mode:multiply;}.cls-9{fill:url(#New_Gradient_Swatch);}</style><linearGradient id="New_Gradient_Swatch" x1="256" y1="136.63" x2="256" y2="318.31" gradientUnits="userSpaceOnUse"><stop offset="0" stop-color="#00b2b8"/><stop offset="0.82" stop-color="#56ced4"/></linearGradient></defs><g class="cls-1"><g id="Camada_1" data-name="Camada 1"><rect class="cls-2" width="512" height="512"/><text class="cls-3" transform="translate(165.16 386.81)">eV<tspan class="cls-4" x="87.83" y="0">A</tspan><tspan class="cls-5" x="135.07" y="0">C</tspan></text><rect class="cls-6" x="206.25" y="179.82" width="91.45" height="98.12"/><g class="cls-7"><path d="M267.89,139.63a98.73,98.73,0,0,0-98.73,98.73v82.95h83a98.73,98.73,0,0,0,98.73-98.73v-83Zm33.8,104.42H273.58v28.11H246.42V244.05H218.31V216.89h28.11V188.78h27.16l.05,28.11h28.06Z"/><path class="cls-8" d="M169.16,238.36v82.95h0l77.26-77.26H218.31V216.89h28.11V188.78h27.16l.05,28.06,77.21-77.21H267.89A98.73,98.73,0,0,0,169.16,238.36Z"/></g><path class="cls-9" d="M263.89,136.63a98.73,98.73,0,0,0-98.73,98.73v82.95h83a98.73,98.73,0,0,0,98.73-98.73v-83Zm33.8,104.42H269.58v28.11H242.42V241.05H214.31V213.89h28.11V185.78h27.16l.05,28.11h28.06Z"/><path class="cls-10" d="M165.16,235.36v82.95h0l77.26-77.26H214.31V213.89h28.11V185.78h27.16l.05,28.06,77.21-77.21H263.89A98.73,98.73,0,0,0,165.16,235.36Z"/></g></g></svg>